<svg xmlns="http://www.w3.org/2000/svg" viewBox="0 0 82 84">
<g transform="translate(-1,4.5)"><path d="M 24.59 23.02 L 39.97 14.68 Q 42.05 13.55 44.12 14.73 L 60.94 24.31 Q 63.00 25.48 63.00 27.86 L 63.00 47.34 Q 63.00 49.72 60.94 50.89 L 44.12 60.47 Q 42.05 61.65 39.97 60.52 L 24.59 52.18 L 33.41 46.72 L 39.86 50.22 Q 41.95 51.35 44.01 50.18 L 51.94 45.66 Q 54.00 44.48 54.00 42.11 L 54.00 33.09 Q 54.00 30.72 51.94 29.54 L 44.01 25.02 Q 41.95 23.85 39.86 24.98 L 33.41 28.48 Z" fill="#ffffff"/>
<path d="M 21 28 L 21 47.2 L 36.5 37.6 Z" fill="#e93323"/>
</g></svg>